<svg xmlns="http://www.w3.org/2000/svg" xmlns:xlink="http://www.w3.org/1999/xlink" width="1080" zoomAndPan="magnify" viewBox="0 0 810 809.999993" height="1080" preserveAspectRatio="xMidYMid meet" version="1.0"><defs><clipPath id="id1"><path d="M 33.640625 17.664062 L 790.390625 17.664062 L 790.390625 774.414062 L 33.640625 774.414062 Z M 33.640625 17.664062 " clip-rule="nonzero"/></clipPath></defs><g clip-path="url(#id1)"><path fill="#ffffff" d="M 412.015625 17.664062 C 203.042969 17.664062 33.640625 187.070312 33.640625 396.039062 C 33.640625 605.011719 203.042969 774.414062 412.015625 774.414062 C 620.984375 774.414062 790.390625 605.011719 790.390625 396.039062 C 790.390625 187.070312 620.984375 17.664062 412.015625 17.664062 " fill-opacity="1" fill-rule="nonzero"/></g><path fill="#ffc90a" d="M 369.46875 558.417969 C 313.011719 541.195312 268.304688 495.136719 252.796875 438.21875 C 250.886719 431.214844 243.65625 427.066406 236.65625 428.996094 C 229.652344 430.90625 225.527344 438.132812 227.429688 445.140625 C 245.300781 510.695312 296.78125 563.742188 361.792969 583.578125 C 363.066406 583.972656 364.363281 584.15625 365.628906 584.15625 C 371.261719 584.15625 376.464844 580.5 378.203125 574.832031 C 380.324219 567.890625 376.40625 560.542969 369.46875 558.417969 Z M 369.46875 558.417969 " fill-opacity="1" fill-rule="nonzero"/><path fill="#ffc90a" d="M 239.40625 306.808594 C 236.296875 313.375 239.101562 321.210938 245.660156 324.324219 C 252.230469 327.433594 260.058594 324.625 263.167969 318.0625 C 291.792969 257.574219 353.480469 218.492188 420.304688 218.492188 C 516.070312 218.492188 593.992188 296.433594 593.992188 392.246094 C 593.992188 459.105469 554.921875 520.808594 494.457031 549.445312 C 487.894531 552.554688 485.09375 560.390625 488.203125 566.953125 C 490.449219 571.703125 495.167969 574.484375 500.089844 574.480469 C 501.976562 574.480469 503.886719 574.070312 505.703125 573.214844 C 575.300781 540.246094 620.277344 469.214844 620.277344 392.246094 C 620.277344 281.9375 530.574219 192.195312 420.304688 192.195312 C 343.367188 192.195312 272.359375 237.183594 239.40625 306.808594 Z M 239.40625 306.808594 " fill-opacity="1" fill-rule="nonzero"/><path fill="#002454" d="M 662.425781 457.335938 C 659.316406 450.773438 651.511719 447.980469 644.917969 451.082031 C 638.363281 454.191406 635.5625 462.027344 638.671875 468.597656 C 668.6875 532.011719 672.488281 584.011719 648.808594 607.683594 C 625.121094 631.378906 573.144531 627.570312 509.75 597.527344 C 454.359375 571.421875 393.972656 527.144531 339.71875 472.863281 C 285.445312 418.5625 241.1875 358.152344 215.089844 302.746094 C 185.070312 239.332031 181.28125 187.332031 204.949219 163.652344 C 228.621094 139.964844 280.601562 143.757812 343.992188 173.796875 C 350.554688 176.910156 358.386719 174.097656 361.496094 167.539062 C 364.605469 160.976562 361.804688 153.140625 355.242188 150.023438 C 279.15625 113.984375 219.175781 112.214844 186.359375 145.0625 C 153.535156 177.890625 155.300781 237.894531 191.320312 313.980469 C 218.664062 372.042969 264.765625 435.070312 321.128906 491.460938 C 377.472656 547.832031 440.480469 593.957031 498.519531 621.3125 C 538.421875 640.21875 573.886719 649.691406 603.335938 649.691406 C 630.035156 649.6875 651.785156 641.894531 667.394531 626.277344 C 700.21875 593.445312 698.453125 533.449219 662.425781 457.335938 Z M 662.425781 457.335938 " fill-opacity="1" fill-rule="nonzero"/></svg>