<svg xmlns="http://www.w3.org/2000/svg" xmlns:xlink="http://www.w3.org/1999/xlink" width="200" zoomAndPan="magnify" viewBox="0 0 150 74.999997" height="100" preserveAspectRatio="xMidYMid meet" version="1.0"><defs><g/><clipPath id="id1"><path d="M 14.269531 20 L 50 20 L 50 55.679688 L 14.269531 55.679688 Z M 14.269531 20 " clip-rule="nonzero"/></clipPath></defs><path fill="#ffc90a" d="M 28.492188 49.5 C 24.773438 48.351562 21.828125 45.28125 20.808594 41.488281 C 20.683594 41.023438 20.207031 40.746094 19.746094 40.875 C 19.285156 41 19.011719 41.484375 19.140625 41.949219 C 20.316406 46.320312 23.703125 49.855469 27.984375 51.179688 C 28.070312 51.203125 28.15625 51.21875 28.238281 51.21875 C 28.609375 51.21875 28.953125 50.972656 29.066406 50.59375 C 29.207031 50.132812 28.949219 49.644531 28.492188 49.5 Z M 28.492188 49.5 " fill-opacity="1" fill-rule="nonzero"/><path fill="#ffc90a" d="M 19.925781 32.726562 C 19.722656 33.167969 19.90625 33.6875 20.339844 33.894531 C 20.773438 34.101562 21.285156 33.914062 21.492188 33.480469 C 23.375 29.445312 27.4375 26.839844 31.839844 26.839844 C 38.144531 26.839844 43.273438 32.035156 43.273438 38.421875 C 43.273438 42.878906 40.703125 46.992188 36.722656 48.902344 C 36.289062 49.109375 36.105469 49.632812 36.308594 50.070312 C 36.457031 50.386719 36.765625 50.570312 37.089844 50.570312 C 37.214844 50.570312 37.339844 50.542969 37.460938 50.488281 C 42.042969 48.289062 45.003906 43.554688 45.003906 38.421875 C 45.003906 31.070312 39.097656 25.089844 31.839844 25.089844 C 26.773438 25.089844 22.097656 28.085938 19.925781 32.726562 Z M 19.925781 32.726562 " fill-opacity="1" fill-rule="nonzero"/><g clip-path="url(#id1)"><path fill="#002454" d="M 47.78125 42.761719 C 47.574219 42.324219 47.0625 42.140625 46.628906 42.347656 C 46.195312 42.554688 46.011719 43.074219 46.214844 43.511719 C 48.191406 47.742188 48.441406 51.207031 46.882812 52.785156 C 45.324219 54.363281 41.902344 54.109375 37.726562 52.109375 C 34.082031 50.367188 30.105469 47.417969 26.53125 43.796875 C 22.957031 40.179688 20.042969 36.152344 18.324219 32.457031 C 16.347656 28.230469 16.101562 24.765625 17.660156 23.183594 C 19.21875 21.605469 22.640625 21.859375 26.8125 23.863281 C 27.246094 24.070312 27.761719 23.882812 27.964844 23.445312 C 28.171875 23.007812 27.988281 22.484375 27.554688 22.277344 C 22.542969 19.875 18.59375 19.757812 16.433594 21.945312 C 14.273438 24.132812 14.390625 28.132812 16.761719 33.207031 C 18.5625 37.078125 21.597656 41.277344 25.308594 45.039062 C 29.019531 48.796875 33.167969 51.871094 36.988281 53.695312 C 39.617188 54.953125 41.949219 55.585938 43.890625 55.585938 C 45.648438 55.585938 47.078125 55.066406 48.109375 54.023438 C 50.269531 51.835938 50.152344 47.835938 47.78125 42.761719 Z M 47.78125 42.761719 " fill-opacity="1" fill-rule="nonzero"/></g><g fill="#002454" fill-opacity="1"><g transform="translate(59.860581, 43.124995)"><g><path d="M 0.5625 -4.75 C 0.5625 -5.695312 0.75 -6.535156 1.125 -7.265625 C 1.507812 -8.003906 2.03125 -8.570312 2.6875 -8.96875 C 3.34375 -9.375 4.070312 -9.578125 4.875 -9.578125 C 5.488281 -9.578125 6.070312 -9.441406 6.625 -9.171875 C 7.1875 -8.898438 7.628906 -8.546875 7.953125 -8.109375 L 7.953125 -12.578125 L 10.375 -12.578125 L 10.375 0 L 7.953125 0 L 7.953125 -1.390625 C 7.660156 -0.929688 7.25 -0.554688 6.71875 -0.265625 C 6.1875 0.015625 5.566406 0.15625 4.859375 0.15625 C 4.066406 0.15625 3.34375 -0.046875 2.6875 -0.453125 C 2.03125 -0.867188 1.507812 -1.445312 1.125 -2.1875 C 0.75 -2.925781 0.5625 -3.78125 0.5625 -4.75 Z M 7.96875 -4.703125 C 7.96875 -5.285156 7.851562 -5.78125 7.625 -6.1875 C 7.40625 -6.601562 7.101562 -6.921875 6.71875 -7.140625 C 6.332031 -7.367188 5.914062 -7.484375 5.46875 -7.484375 C 5.03125 -7.484375 4.625 -7.375 4.25 -7.15625 C 3.875 -6.9375 3.566406 -6.617188 3.328125 -6.203125 C 3.097656 -5.796875 2.984375 -5.3125 2.984375 -4.75 C 2.984375 -4.175781 3.097656 -3.675781 3.328125 -3.25 C 3.566406 -2.832031 3.875 -2.507812 4.25 -2.28125 C 4.632812 -2.050781 5.039062 -1.9375 5.46875 -1.9375 C 5.914062 -1.9375 6.332031 -2.046875 6.71875 -2.265625 C 7.101562 -2.484375 7.40625 -2.800781 7.625 -3.21875 C 7.851562 -3.632812 7.96875 -4.128906 7.96875 -4.703125 Z M 7.96875 -4.703125 "/></g></g></g><g fill="#002454" fill-opacity="1"><g transform="translate(71.381255, 43.124995)"><g><path d="M 9.921875 -4.90625 C 9.921875 -4.570312 9.898438 -4.269531 9.859375 -4 L 2.96875 -4 C 3.03125 -3.3125 3.269531 -2.773438 3.6875 -2.390625 C 4.101562 -2.003906 4.617188 -1.8125 5.234375 -1.8125 C 6.117188 -1.8125 6.75 -2.191406 7.125 -2.953125 L 9.6875 -2.953125 C 9.414062 -2.046875 8.894531 -1.300781 8.125 -0.71875 C 7.351562 -0.132812 6.40625 0.15625 5.28125 0.15625 C 4.375 0.15625 3.5625 -0.0390625 2.84375 -0.4375 C 2.125 -0.84375 1.5625 -1.414062 1.15625 -2.15625 C 0.757812 -2.894531 0.5625 -3.742188 0.5625 -4.703125 C 0.5625 -5.679688 0.757812 -6.535156 1.15625 -7.265625 C 1.550781 -8.003906 2.101562 -8.570312 2.8125 -8.96875 C 3.53125 -9.375 4.351562 -9.578125 5.28125 -9.578125 C 6.175781 -9.578125 6.976562 -9.382812 7.6875 -9 C 8.394531 -8.613281 8.941406 -8.066406 9.328125 -7.359375 C 9.722656 -6.648438 9.921875 -5.832031 9.921875 -4.90625 Z M 7.46875 -5.59375 C 7.457031 -6.207031 7.234375 -6.695312 6.796875 -7.0625 C 6.367188 -7.425781 5.84375 -7.609375 5.21875 -7.609375 C 4.625 -7.609375 4.125 -7.429688 3.71875 -7.078125 C 3.320312 -6.722656 3.078125 -6.226562 2.984375 -5.59375 Z M 7.46875 -5.59375 "/></g></g></g><g fill="#002454" fill-opacity="1"><g transform="translate(81.865416, 43.124995)"><g><path d="M 4.78125 0.15625 C 4.007812 0.15625 3.316406 0.015625 2.703125 -0.265625 C 2.085938 -0.546875 1.601562 -0.921875 1.25 -1.390625 C 0.894531 -1.867188 0.695312 -2.394531 0.65625 -2.96875 L 3.0625 -2.96875 C 3.101562 -2.613281 3.28125 -2.316406 3.59375 -2.078125 C 3.90625 -1.835938 4.296875 -1.71875 4.765625 -1.71875 C 5.210938 -1.71875 5.5625 -1.804688 5.8125 -1.984375 C 6.070312 -2.171875 6.203125 -2.40625 6.203125 -2.6875 C 6.203125 -2.988281 6.046875 -3.21875 5.734375 -3.375 C 5.421875 -3.53125 4.925781 -3.695312 4.25 -3.875 C 3.550781 -4.039062 2.976562 -4.210938 2.53125 -4.390625 C 2.082031 -4.578125 1.695312 -4.859375 1.375 -5.234375 C 1.050781 -5.609375 0.890625 -6.113281 0.890625 -6.75 C 0.890625 -7.269531 1.035156 -7.742188 1.328125 -8.171875 C 1.628906 -8.609375 2.0625 -8.953125 2.625 -9.203125 C 3.1875 -9.453125 3.847656 -9.578125 4.609375 -9.578125 C 5.734375 -9.578125 6.628906 -9.296875 7.296875 -8.734375 C 7.960938 -8.171875 8.328125 -7.410156 8.390625 -6.453125 L 6.125 -6.453125 C 6.082031 -6.828125 5.921875 -7.125 5.640625 -7.34375 C 5.367188 -7.570312 5 -7.6875 4.53125 -7.6875 C 4.101562 -7.6875 3.773438 -7.601562 3.546875 -7.4375 C 3.316406 -7.28125 3.203125 -7.0625 3.203125 -6.78125 C 3.203125 -6.46875 3.359375 -6.226562 3.671875 -6.0625 C 3.984375 -5.894531 4.476562 -5.726562 5.15625 -5.5625 C 5.832031 -5.382812 6.390625 -5.207031 6.828125 -5.03125 C 7.273438 -4.851562 7.660156 -4.570312 7.984375 -4.1875 C 8.304688 -3.8125 8.472656 -3.3125 8.484375 -2.6875 C 8.484375 -2.144531 8.332031 -1.65625 8.03125 -1.21875 C 7.726562 -0.789062 7.296875 -0.453125 6.734375 -0.203125 C 6.179688 0.0351562 5.53125 0.15625 4.78125 0.15625 Z M 4.78125 0.15625 "/></g></g></g><g fill="#002454" fill-opacity="1"><g transform="translate(91.126134, 43.124995)"><g><path d="M 0.5625 -4.75 C 0.5625 -5.695312 0.75 -6.535156 1.125 -7.265625 C 1.507812 -8.003906 2.023438 -8.570312 2.671875 -8.96875 C 3.328125 -9.375 4.054688 -9.578125 4.859375 -9.578125 C 5.566406 -9.578125 6.179688 -9.429688 6.703125 -9.140625 C 7.234375 -8.859375 7.65625 -8.503906 7.96875 -8.078125 L 7.96875 -9.421875 L 10.375 -9.421875 L 10.375 0 L 7.96875 0 L 7.96875 -1.375 C 7.664062 -0.9375 7.242188 -0.570312 6.703125 -0.28125 C 6.171875 0.0078125 5.550781 0.15625 4.84375 0.15625 C 4.050781 0.15625 3.328125 -0.046875 2.671875 -0.453125 C 2.023438 -0.867188 1.507812 -1.445312 1.125 -2.1875 C 0.75 -2.925781 0.5625 -3.78125 0.5625 -4.75 Z M 7.96875 -4.703125 C 7.96875 -5.285156 7.851562 -5.78125 7.625 -6.1875 C 7.40625 -6.601562 7.101562 -6.921875 6.71875 -7.140625 C 6.332031 -7.367188 5.914062 -7.484375 5.46875 -7.484375 C 5.03125 -7.484375 4.625 -7.375 4.25 -7.15625 C 3.875 -6.9375 3.566406 -6.617188 3.328125 -6.203125 C 3.097656 -5.796875 2.984375 -5.3125 2.984375 -4.75 C 2.984375 -4.175781 3.097656 -3.675781 3.328125 -3.25 C 3.566406 -2.832031 3.875 -2.507812 4.25 -2.28125 C 4.632812 -2.050781 5.039062 -1.9375 5.46875 -1.9375 C 5.914062 -1.9375 6.332031 -2.046875 6.71875 -2.265625 C 7.101562 -2.484375 7.40625 -2.800781 7.625 -3.21875 C 7.851562 -3.632812 7.96875 -4.128906 7.96875 -4.703125 Z M 7.96875 -4.703125 "/></g></g></g><g fill="#002454" fill-opacity="1"><g transform="translate(102.646809, 43.124995)"><g><path d="M 2.375 -10.546875 C 1.957031 -10.546875 1.609375 -10.675781 1.328125 -10.9375 C 1.054688 -11.207031 0.921875 -11.539062 0.921875 -11.9375 C 0.921875 -12.332031 1.054688 -12.660156 1.328125 -12.921875 C 1.609375 -13.191406 1.957031 -13.328125 2.375 -13.328125 C 2.800781 -13.328125 3.148438 -13.191406 3.421875 -12.921875 C 3.703125 -12.660156 3.84375 -12.332031 3.84375 -11.9375 C 3.84375 -11.539062 3.703125 -11.207031 3.421875 -10.9375 C 3.148438 -10.675781 2.800781 -10.546875 2.375 -10.546875 Z M 3.546875 -9.421875 L 3.546875 0 L 1.171875 0 L 1.171875 -9.421875 Z M 3.546875 -9.421875 "/></g></g></g><g fill="#002454" fill-opacity="1"><g transform="translate(107.370632, 43.124995)"><g><path d="M 6.390625 -9.546875 C 7.515625 -9.546875 8.421875 -9.191406 9.109375 -8.484375 C 9.804688 -7.773438 10.15625 -6.789062 10.15625 -5.53125 L 10.15625 0 L 7.765625 0 L 7.765625 -5.203125 C 7.765625 -5.953125 7.578125 -6.523438 7.203125 -6.921875 C 6.828125 -7.328125 6.316406 -7.53125 5.671875 -7.53125 C 5.015625 -7.53125 4.492188 -7.328125 4.109375 -6.921875 C 3.734375 -6.523438 3.546875 -5.953125 3.546875 -5.203125 L 3.546875 0 L 1.171875 0 L 1.171875 -9.421875 L 3.546875 -9.421875 L 3.546875 -8.25 C 3.867188 -8.65625 4.273438 -8.972656 4.765625 -9.203125 C 5.265625 -9.429688 5.804688 -9.546875 6.390625 -9.546875 Z M 6.390625 -9.546875 "/></g></g></g><g fill="#002454" fill-opacity="1"><g transform="translate(118.602447, 43.124995)"><g><path d="M 2.234375 0.125 C 1.796875 0.125 1.4375 -0.0078125 1.15625 -0.28125 C 0.882812 -0.550781 0.75 -0.882812 0.75 -1.28125 C 0.75 -1.675781 0.882812 -2.003906 1.15625 -2.265625 C 1.4375 -2.535156 1.796875 -2.671875 2.234375 -2.671875 C 2.648438 -2.671875 2.992188 -2.535156 3.265625 -2.265625 C 3.535156 -2.003906 3.671875 -1.675781 3.671875 -1.28125 C 3.671875 -0.882812 3.535156 -0.550781 3.265625 -0.28125 C 2.992188 -0.0078125 2.648438 0.125 2.234375 0.125 Z M 2.234375 0.125 "/></g></g></g><g fill="#002454" fill-opacity="1"><g transform="translate(123.020404, 43.124995)"><g><path d="M 2.375 -10.546875 C 1.957031 -10.546875 1.609375 -10.675781 1.328125 -10.9375 C 1.054688 -11.207031 0.921875 -11.539062 0.921875 -11.9375 C 0.921875 -12.332031 1.054688 -12.660156 1.328125 -12.921875 C 1.609375 -13.191406 1.957031 -13.328125 2.375 -13.328125 C 2.800781 -13.328125 3.148438 -13.191406 3.421875 -12.921875 C 3.703125 -12.660156 3.84375 -12.332031 3.84375 -11.9375 C 3.84375 -11.539062 3.703125 -11.207031 3.421875 -10.9375 C 3.148438 -10.675781 2.800781 -10.546875 2.375 -10.546875 Z M 3.546875 -9.421875 L 3.546875 0 L 1.171875 0 L 1.171875 -9.421875 Z M 3.546875 -9.421875 "/></g></g></g><g fill="#002454" fill-opacity="1"><g transform="translate(127.744227, 43.124995)"><g><path d="M 5.359375 0.15625 C 4.453125 0.15625 3.632812 -0.0390625 2.90625 -0.4375 C 2.175781 -0.84375 1.601562 -1.414062 1.1875 -2.15625 C 0.78125 -2.894531 0.578125 -3.742188 0.578125 -4.703125 C 0.578125 -5.671875 0.789062 -6.519531 1.21875 -7.25 C 1.644531 -7.988281 2.222656 -8.5625 2.953125 -8.96875 C 3.691406 -9.375 4.515625 -9.578125 5.421875 -9.578125 C 6.328125 -9.578125 7.148438 -9.375 7.890625 -8.96875 C 8.628906 -8.5625 9.207031 -7.988281 9.625 -7.25 C 10.050781 -6.519531 10.265625 -5.671875 10.265625 -4.703125 C 10.265625 -3.742188 10.046875 -2.894531 9.609375 -2.15625 C 9.171875 -1.414062 8.582031 -0.84375 7.84375 -0.4375 C 7.101562 -0.0390625 6.273438 0.15625 5.359375 0.15625 Z M 5.359375 -1.921875 C 5.785156 -1.921875 6.1875 -2.023438 6.5625 -2.234375 C 6.945312 -2.441406 7.25 -2.753906 7.46875 -3.171875 C 7.695312 -3.597656 7.8125 -4.109375 7.8125 -4.703125 C 7.8125 -5.597656 7.578125 -6.285156 7.109375 -6.765625 C 6.640625 -7.253906 6.066406 -7.5 5.390625 -7.5 C 4.710938 -7.5 4.140625 -7.253906 3.671875 -6.765625 C 3.210938 -6.285156 2.984375 -5.597656 2.984375 -4.703125 C 2.984375 -3.804688 3.207031 -3.117188 3.65625 -2.640625 C 4.101562 -2.160156 4.671875 -1.921875 5.359375 -1.921875 Z M 5.359375 -1.921875 "/></g></g></g></svg>